<?xml version="1.0" encoding="utf-8"?>
<!-- Generator: Adobe Illustrator 28.2.0, SVG Export Plug-In . SVG Version: 6.00 Build 0)  -->
<svg version="1.1" id="Logo" xmlns="http://www.w3.org/2000/svg" xmlns:xlink="http://www.w3.org/1999/xlink" x="0px" y="0px"
	 viewBox="0 0 1415.6 606" style="enable-background:new 0 0 1415.6 606;" xml:space="preserve">
<polygon points="106.2,337 204.8,337 204.8,401.6 38.5,401.6 38.5,46 106.2,46 "/>
<polygon points="256.5,46 450.6,46 450.6,112.3 323.7,112.3 323.7,176.6 450.6,176.6 450.6,241.6 323.7,241.6 323.7,335.1 
	450.6,335.1 450.6,401.6 256.5,401.6 "/>
<path d="M1389.6,309.7c0,29.2-10.1,53.2-30.2,72.3c-20.2,19-46.5,28.5-78.9,28.5c-25.3,0-47.4-6.2-66.2-18.6
	c-18.8-12.4-34.9-31.9-48.3-58.5l56.9-34.3c17.1,31.4,36.8,47.1,59.1,47.1c11.6,0,21.4-3.4,29.3-10.1c7.9-6.8,11.9-14.6,11.9-23.4
	c0-8.1-3-16.1-8.9-24.2c-6-8.1-19.1-20.4-39.5-37c-38.7-31.6-63.8-56-75.1-73.1c-11.3-17.2-16.9-34.3-16.9-51.4
	c0-24.7,9.4-45.8,28.2-63.5c18.8-17.6,42-26.5,69.6-26.5c17.8,0,34.7,4.1,50.7,12.3c16.1,8.2,33.4,23.2,52.2,45l-50.1,44.2
	c-17.6-24.5-35.5-36.7-53.8-36.7c-8.9,0-16.1,2.4-21.8,7.1c-5.6,4.8-8.5,10.1-8.5,16.1c0,6,2,11.6,6.1,16.9
	c5.5,7.1,22,22.3,49.6,45.7c25.8,21.6,41.5,35.2,47,40.8c13.7,13.9,23.4,27.1,29.2,39.8C1386.8,280.9,1389.6,294.8,1389.6,309.7z"/>
<path d="M1050.3,46h67.9v212c0,35.8-2,60.6-6,74.5c-4,13.9-11.7,27.2-23.1,40.1c-11.4,12.9-24.5,22.4-39.3,28.6
	c-14.8,6.2-32.1,9.3-51.7,9.3c-25.8,0-48.2-5.9-67.3-17.8c-19.1-11.8-32.8-26.7-41-44.5c-8.2-17.8-12.3-47.9-12.3-90.3V46h67.9V276
	c0,19.8,1.7,33.8,5.2,42c3.5,8.2,9.2,14.8,17.2,19.7c8,4.9,17.6,7.4,28.9,7.4c11.9,0,22.2-2.7,30.8-8.2c8.6-5.5,14.6-12.4,17.9-20.9
	c3.3-8.5,5-24.6,5-48.4V46z"/>
<polygon points="731,46 798.7,46 798.7,401.6 733.6,401.6 581.6,168.3 581.6,401.6 514,401.6 514,46 578.9,46 731,280 "/>
<path d="M640.6,471.1l-12.2,10.7c-4.3-5.9-8.6-8.9-13-8.9c-2.2,0-3.9,0.6-5.3,1.7c-1.4,1.2-2.1,2.5-2.1,3.9c0,1.4,0.5,2.8,1.5,4.1
	c1.3,1.7,5.3,5.4,12,11.1c6.3,5.2,10.1,8.5,11.4,9.9c3.3,3.4,5.7,6.6,7.1,9.6c1.4,3.1,2.1,6.4,2.1,10c0,7.1-2.4,12.9-7.3,17.5
	c-4.9,4.6-11.3,6.9-19.1,6.9c-6.1,0-11.5-1.5-16-4.5s-8.5-7.7-11.7-14.2l13.8-8.3c4.1,7.6,8.9,11.4,14.3,11.4c2.8,0,5.2-0.8,7.1-2.5
	c1.9-1.6,2.9-3.5,2.9-5.7c0-2-0.7-3.9-2.2-5.9c-1.4-2-4.6-4.9-9.6-9c-9.4-7.7-15.5-13.6-18.2-17.7s-4.1-8.3-4.1-12.5
	c0-6,2.3-11.1,6.8-15.4c4.6-4.3,10.2-6.4,16.9-6.4c4.3,0,8.4,1,12.3,3S636.1,465.8,640.6,471.1z"/>
<path d="M656,481.8h16.2v30.7c0,6,0.4,10.1,1.2,12.5c0.8,2.3,2.1,4.1,4,5.4c1.8,1.3,4.1,1.9,6.7,1.9c2.7,0,4.9-0.6,6.8-1.9
	c1.9-1.3,3.2-3.1,4.1-5.6c0.7-1.8,1-5.8,1-11.8v-31.2h16v27c0,11.1-0.9,18.8-2.6,22.9c-2.1,5-5.3,8.8-9.5,11.5
	c-4.2,2.7-9.5,4-15.9,4c-7,0-12.6-1.6-17-4.7c-4.3-3.1-7.4-7.5-9.1-13.1c-1.3-3.9-1.9-10.9-1.9-21.1V481.8z"/>
<path d="M743.9,481.8v7c2.9-2.9,6-5.1,9.4-6.5c3.4-1.4,7-2.2,10.8-2.2c8.3,0,15.4,3.1,21.2,9.4c5.8,6.3,8.7,14.4,8.7,24.2
	c0,9.5-3,17.4-9,23.8s-13.1,9.6-21.4,9.6c-3.7,0-7.1-0.7-10.3-2s-6.3-3.4-9.4-6.4v30.1h-15.9v-87.1H743.9z M760.8,495
	c-5,0-9.2,1.7-12.5,5.2c-3.3,3.4-5,7.9-5,13.5c0,5.7,1.7,10.2,5,13.7c3.3,3.5,7.5,5.2,12.5,5.2c4.9,0,9-1.8,12.3-5.3
	c3.3-3.6,5-8.1,5-13.6c0-5.5-1.6-10-4.9-13.4C769.9,496.7,765.8,495,760.8,495z"/>
<path d="M871.2,518.3h-51.4c0.7,4.5,2.7,8.1,5.9,10.8c3.2,2.7,7.3,4,12.3,4c6,0,11.1-2.1,15.4-6.3l13.5,6.3
	c-3.4,4.8-7.4,8.3-12.1,10.6s-10.3,3.4-16.7,3.4c-10,0-18.1-3.2-24.4-9.5c-6.3-6.3-9.4-14.2-9.4-23.7c0-9.7,3.1-17.8,9.4-24.2
	c6.3-6.4,14.1-9.6,23.6-9.6c10,0,18.2,3.2,24.5,9.6c6.3,6.4,9.4,14.9,9.4,25.5L871.2,518.3z M855.2,505.7c-1.1-3.6-3.1-6.4-6.3-8.7
	s-6.7-3.3-10.8-3.3c-4.5,0-8.4,1.3-11.7,3.8c-2.1,1.6-4.1,4.3-5.9,8.3H855.2z"/>
<path d="M880.4,481.8h13.7v8c1.5-3.2,3.5-5.6,5.9-7.2s5.2-2.5,8.1-2.5c2.1,0,4.2,0.5,6.5,1.6l-5,13.8c-1.9-0.9-3.4-1.4-4.6-1.4
	c-2.5,0-4.5,1.5-6.2,4.6s-2.5,9-2.5,17.9l0.1,3.1v25.8h-15.9V481.8z"/>
<path d="M1037,474.5l-11.5,10.9c-7.8-8.2-16.6-12.4-26.3-12.4c-8.2,0-15.2,2.8-20.8,8.4c-5.6,5.6-8.5,12.6-8.5,20.8
	c0,5.7,1.2,10.9,3.7,15.3c2.5,4.5,6,8,10.6,10.5c4.6,2.5,9.6,3.8,15.2,3.8c4.8,0,9.1-0.9,13.1-2.7c3.9-1.8,8.3-5,13-9.7l11.1,11.6
	c-6.4,6.2-12.4,10.5-18,12.9c-5.7,2.4-12.1,3.6-19.4,3.6c-13.4,0-24.4-4.2-32.9-12.7s-12.8-19.4-12.8-32.7c0-8.6,1.9-16.2,5.8-22.9
	s9.5-12,16.7-16.1c7.2-4.1,15-6.1,23.4-6.1c7.1,0,14,1.5,20.5,4.5C1026.6,464.7,1032.3,469,1037,474.5z"/>
<path d="M1079.6,480.2c6,0,11.7,1.5,17,4.5c5.3,3,9.4,7.1,12.4,12.2s4.5,10.7,4.5,16.7c0,6-1.5,11.6-4.5,16.9
	c-3,5.2-7.1,9.3-12.2,12.3s-10.8,4.4-17.1,4.4c-9.1,0-16.9-3.3-23.4-9.8s-9.7-14.4-9.7-23.7c0-10,3.7-18.3,11-24.9
	C1063.9,483.1,1071.3,480.2,1079.6,480.2z M1079.8,495.2c-5,0-9.1,1.7-12.4,5.2c-3.3,3.5-5,7.9-5,13.3c0,5.5,1.6,10,4.9,13.5
	c3.3,3.4,7.4,5.2,12.4,5.2c5,0,9.2-1.7,12.5-5.2c3.3-3.5,5-7.9,5-13.4c0-5.5-1.6-9.9-4.9-13.3C1089.1,497,1084.9,495.2,1079.8,495.2
	z"/>
<path d="M1126.4,481.8h16v6.5c3.6-3.1,6.9-5.2,9.9-6.4c2.9-1.2,6-1.8,9-1.8c6.3,0,11.7,2.2,16.1,6.6c3.7,3.8,5.6,9.3,5.6,16.6v42.1
	h-15.8v-27.9c0-7.6-0.3-12.7-1-15.2c-0.7-2.5-1.9-4.4-3.6-5.7c-1.7-1.3-3.8-2-6.3-2c-3.2,0-6,1.1-8.3,3.2c-2.3,2.2-3.9,5.2-4.8,9
	c-0.5,2-0.7,6.3-0.7,12.9v25.6h-16V481.8z"/>
<path d="M1262.3,518.3h-51.4c0.7,4.5,2.7,8.1,5.9,10.8c3.2,2.7,7.3,4,12.3,4c6,0,11.1-2.1,15.4-6.3l13.5,6.3
	c-3.4,4.8-7.4,8.3-12.1,10.6s-10.3,3.4-16.7,3.4c-10,0-18.1-3.2-24.4-9.5c-6.3-6.3-9.4-14.2-9.4-23.7c0-9.7,3.1-17.8,9.4-24.2
	c6.3-6.4,14.1-9.6,23.6-9.6c10,0,18.2,3.2,24.5,9.6c6.3,6.4,9.4,14.9,9.4,25.5L1262.3,518.3z M1246.3,505.7
	c-1.1-3.6-3.1-6.4-6.3-8.7s-6.7-3.3-10.8-3.3c-4.5,0-8.4,1.3-11.7,3.8c-2.1,1.6-4.1,4.3-5.9,8.3H1246.3z"/>
<path d="M1337.7,494.7l-13.3,7.3c-2.5-2.6-5-4.4-7.4-5.4c-2.4-1-5.3-1.5-8.6-1.5c-6,0-10.8,1.8-14.5,5.4c-3.7,3.6-5.5,8.1-5.5,13.7
	c0,5.4,1.8,9.8,5.3,13.3c3.6,3.4,8.2,5.1,14,5.1c7.2,0,12.7-2.4,16.7-7.3l12.6,8.6c-6.8,8.9-16.5,13.3-28.9,13.3
	c-11.2,0-20-3.3-26.3-10c-6.3-6.6-9.5-14.4-9.5-23.3c0-6.2,1.5-11.9,4.6-17.1c3.1-5.2,7.4-9.3,12.9-12.2c5.5-3,11.7-4.5,18.5-4.5
	c6.3,0,12,1.3,17.1,3.8S1334.5,490.1,1337.7,494.7z"/>
<path d="M1354,458.3h16v23.5h9.5v13.8h-9.5v50h-16v-50h-8.2v-13.8h8.2V458.3z"/>
</svg>
